. 
 
http://www.torrenting.com          :     Once & For all ;)


               www . Torrenting . Com 

(((((((((((((= Enjoy No RAR releases =))))))))))))))))))))


...................................NFO:....................................

.








































          
          
              
              
                    
                    
                    
                    
Poster:
[img]http://cf2.imgobject.com/t/p/w500/fvxIclo8PkGOaFAvZA3KKnq361f.jpg[/img]

IMDB Link: 
http://www.imdb.com/title/tt0120623

Description:
Every year, a bunch of grasshoppers come to the anthill and eat what the ants have gathered for them. The "offering", as the ants call the ritual, is a part of their fate. One day in spring, when the offering's preparation has just been finished, Flik, unliked inventor ant, accidentally drops the whole offered seeds into the river. The grasshoppers come and give the ants a second chance to collect food until fall. Flik sets off to find bugs that are willing to fight the grasshoppers (nobody expects him to succeed anyway) and, due to a double misinterpretation, returns with a circus crew, giving everybody new hope. When the misunderstanding finally gets cleared out, there is only little time left for a new plan, which has to work, or else...

General
Complete name                    : A.Bugs.Life.1998.BRRiP.x264.AC3-SiC.mkv
Format                           : Matroska
Format version                   : Version 2
File size                        : 1.37 GiB
Duration                         : 1h 34mn
Overall bit rate                 : 2 064 Kbps
Writing library                  : libmkv 0.6.4.1

Video
ID                               : 1
Format                           : AVC
Format/Info                      : Advanced Video Codec
Format profile                   : High@L3.0
Format settings, CABAC           : Yes
Format settings, ReFrames        : 4 frames
Codec ID                         : V_MPEG4/ISO/AVC
Duration                         : 1h 34mn
Bit rate                         : 1 675 Kbps
Width                            : 720 pixels
Height                           : 304 pixels
Display aspect ratio             : 2.35:1
Frame rate mode                  : Variable
Frame rate                       : 23.976 fps
Color space                      : YUV
Chroma subsampling               : 4:2:0
Bit depth                        : 8 bits
Scan type                        : Progressive
Bits/(Pixel*Frame)               : 0.319
Stream size                      : 1.09 GiB (79%)
Writing library                  : x264 core 112
Language                         : English

Audio
ID                               : 2
Format                           : AC-3
Format/Info                      : Audio Coding 3
Mode extension                   : CM (complete main)
Codec ID                         : A_AC3
Duration                         : 1h 34mn
Bit rate mode                    : Constant
Bit rate                         : 384 Kbps
Channel(s)                       : 6 channels
Channel positions                : Front: L C R, Side: L R, LFE
Sampling rate                    : 48.0 KHz
Bit depth                        : 16 bits
Compression mode                 : Lossy
Stream size                      : 261 MiB (19%)
Language                         : English

Screenshots:
[IMG]http://img42.imageshack.us/img42/8249/vlcsnap2011121615h13m22.png[/IMG]
[IMG]http://img854.imageshack.us/img854/6259/vlcsnap2011121615h14m17.png[/IMG]
[IMG]http://img97.imageshack.us/img97/7901/vlcsnap2011121615h19m09.png[/IMG]
[IMG]http://img576.imageshack.us/img576/7436/vlcsnap2011121615h20m23.png[/IMG]
[IMG]http://img40.imageshack.us/img40/3820/vlcsnap2011121615h20m43.png[/IMG]
[IMG]http://img18.imageshack.us/img18/5536/vlcsnap2011121615h20m52.png[/IMG]
[IMG]http://img864.imageshack.us/img864/5545/vlcsnap2011121615h21m00.png[/IMG]
[IMG]http://img190.imageshack.us/img190/3549/vlcsnap2011121615h23m39.png[/IMG]

Note: Normal Stuff :) Turned out real nice ;)  Kidz will love!

Source:  japhson-abl 720p      MANY THANKX ;)

Enjoy!

Respects to T00NG0D, ELEKTRI4KA, PA, YeFsTe, Box, MrRep and everyone in the struggle...